<svg width="16" height="18" viewBox="0 0 16 18" xmlns="http://www.w3.org/2000/svg">
<path fill-rule="evenodd" clip-rule="evenodd" d="M6.23754 16.0032C6.24216 16.1124 6.23038 16.219 6.20738 16.3268C6.16698 16.5164 6.08895 16.7169 5.9785 16.9022C5.66452 17.4289 5.13115 17.7804 4.44444 17.7804C2.82675 17.7804 2.19185 16.9868 1.39691 14.9994C0.858521 13.6534 0.604532 13.3359 0 13.3359L0 11.5582C1.61769 11.5582 2.25259 12.3518 3.04753 14.3391C3.58592 15.6851 3.83991 16.0026 4.44444 16.0026C4.44444 15.7447 4.44091 15.5162 4.43348 15.2068C4.41606 14.4817 4.41405 14.3336 4.44569 14.1398C4.45833 13.7166 4.56759 13.4163 4.78666 13.1183C2.80284 12.6864 1.46482 11.7945 0.696865 10.3479L0.409188 9.67139C0.128929 8.86596 0 7.95336 0 6.8994C0 5.68557 0.370085 4.60026 1.06135 3.69304C0.845713 2.83069 0.875245 1.77709 1.35139 0.587202L1.50697 0.198397L1.90584 0.0708087C1.95924 0.0537263 2.02416 0.0382979 2.10044 0.0263271C2.87712 -0.0955749 3.98232 0.195271 5.42715 1.12075C6.2789 0.923306 7.17586 0.823621 8.07891 0.823621C8.8859 0.823621 9.68841 0.904976 10.4548 1.06537C11.8605 0.185072 12.9353 -0.0910234 13.6911 0.0264833C13.7665 0.0382052 13.8308 0.0533381 13.8837 0.0701334L14.2851 0.197409L14.4409 0.588585C14.8574 1.63458 14.9289 2.59855 14.7773 3.44204C15.572 4.39556 16 5.56781 16 6.8994C16 8.02201 15.9196 8.86615 15.6884 9.68738L15.4444 10.357C14.8056 11.8021 13.3969 12.704 11.2245 13.1336C11.4503 13.4462 11.5556 13.7636 11.5556 14.2248V15.1137C11.5556 15.5445 11.5556 15.5577 11.5546 16.0026C11.5566 16.0345 11.5593 16.0502 11.5622 16.0599C11.5615 16.0602 11.5556 17.7804 11.5556 17.7804C10.7984 17.7804 10.2354 17.4111 9.95856 16.8287C9.815 16.5267 9.77211 16.2383 9.77778 15.99V14.2248C9.77778 14.1503 9.77519 14.146 9.59368 13.9645C9.10853 13.4793 8.88889 13.1133 8.88889 12.447V11.643L9.68896 11.5626C12.0705 11.3234 13.3658 10.6621 13.7953 9.69586L13.996 9.1472C14.1557 8.57353 14.2222 7.8749 14.2222 6.8994C14.2222 5.86288 13.8604 5.00664 13.176 4.32254L12.7998 3.94653L12.9534 3.4373C13.0897 2.9849 13.1222 2.44959 12.9779 1.83902C12.9539 1.84509 12.929 1.85172 12.9031 1.85892C12.4271 1.99142 11.8329 2.27575 11.1168 2.75439L10.7902 2.9727L10.4089 2.87815C9.67146 2.69529 8.87898 2.6014 8.07891 2.6014C7.18921 2.6014 6.30975 2.7146 5.4973 2.93609L5.1008 3.04418L4.76162 2.81214C4.021 2.30549 3.40574 2.00419 2.91238 1.86344C2.87714 1.85338 2.84359 1.84439 2.8117 1.83638C2.63958 2.54303 2.70765 3.12361 2.88198 3.55925L3.09101 4.08161L2.70834 4.49406C2.09858 5.15129 1.77778 5.95108 1.77778 6.8994C1.77778 7.76763 1.87942 8.48707 2.06567 9.029L2.29828 9.57961C2.87977 10.6707 4.11485 11.3272 6.31696 11.5632L7.11111 11.6483V12.447C7.11111 13.1133 6.89148 13.4793 6.40632 13.9645C6.22481 14.146 6.22222 14.1503 6.22222 14.2248L6.2069 14.3892C6.19676 14.443 6.19676 14.5822 6.21074 15.1641C6.21717 15.4317 6.22084 15.6436 6.2219 15.8649C6.23252 15.9107 6.23412 15.9403 6.23754 16.0032Z"/>
</svg>
