<svg width="64" height="99" viewBox="0 0 64 99" fill="none" xmlns="http://www.w3.org/2000/svg">
<path fill-rule="evenodd" clip-rule="evenodd" d="M22.5208 2.42458L22.4421 1.24085L1.00057 11.7011L1.00061 11.7012H1.00057V85.6402L1 85.6399L1.00003 87.9571L20.9698 97.647L62.9577 77.8458L62.9666 75.3603L62.9603 75.3633L62.9975 40.6751L63.0001 40.6763L63.0001 38.4272L63.0002 38.4197L63.0001 38.4198V37.8422L42.9881 28.3742V12.9652L42.9882 12.9651V12.965L42.9884 12.9651L42.9884 10.4373L23.5204 1L22.5208 2.42458ZM22.5576 2.9794L22.6175 3.88171L3.5608 12.9184V86.8555L20.9698 95.1192L20.9703 95.119V20.97L20.9702 20.9699L20.9703 20.9698L40.3746 11.6876L22.5576 2.9794ZM23.5306 93.9144L60.3557 76.5887V42.2101L40.4281 51.725V51.7249L40.4279 51.725V14.1786L23.5306 22.1874V93.9144ZM42.9881 47.9748V31.166L60.6038 39.5375L60.3557 39.6543V39.6824L42.9881 47.9748Z" fill="#0642FF"/>
<path d="M22.5208 2.42458L22.0219 2.45771L22.1158 3.87217L22.93 2.71178L22.5208 2.42458ZM22.4421 1.24085L22.941 1.20772L22.8917 0.465196L22.2229 0.791478L22.4421 1.24085ZM1.00057 11.7011L0.781343 11.2518L0.254707 11.5087L0.591283 11.9883L1.00057 11.7011ZM1.00061 11.7012V12.2012H1.96228L1.4099 11.414L1.00061 11.7012ZM1.00057 11.7012V11.2012H0.500566V11.7012H1.00057ZM1.00057 85.6402L0.787292 86.0924L1.50057 86.4288V85.6402H1.00057ZM1 85.6399L1.21327 85.1877L0.49999 84.8513L0.5 85.6399L1 85.6399ZM1.00003 87.9571L0.500029 87.9571L0.500033 88.2702L0.781753 88.4069L1.00003 87.9571ZM20.9698 97.647L20.7515 98.0969L20.9667 98.2013L21.1831 98.0993L20.9698 97.647ZM62.9577 77.8458L63.1709 78.298L63.4565 78.1633L63.4577 77.8476L62.9577 77.8458ZM62.9666 75.3603L63.4666 75.3621L63.4694 74.5715L62.7539 74.9078L62.9666 75.3603ZM62.9603 75.3633L62.4603 75.3628L62.4594 76.1512L63.173 75.8158L62.9603 75.3633ZM62.9975 40.6751L63.2119 40.2233L62.4984 39.8847L62.4975 40.6745L62.9975 40.6751ZM63.0001 40.6763L62.7857 41.128L63.5001 41.467V40.6763H63.0001ZM63.0001 38.4272L62.5001 38.4211V38.4272H63.0001ZM63.0002 38.4197L63.5001 38.4258L63.5098 37.6361L62.7919 37.9652L63.0002 38.4197ZM63.0001 38.4198H62.5001V39.1989L63.2084 38.8743L63.0001 38.4198ZM63.0001 37.8422H63.5001V37.5257L63.2139 37.3903L63.0001 37.8422ZM42.9881 28.3742H42.4881V28.6908L42.7743 28.8262L42.9881 28.3742ZM42.9881 12.9652L42.773 12.5138L42.4881 12.6496V12.9652H42.9881ZM42.9882 12.9651L43.2034 13.4165L43.4882 13.2807V12.9651H42.9882ZM42.9882 12.965L43.2079 12.5158L42.4882 12.164V12.965H42.9882ZM42.9884 12.9651L42.7688 13.4143L43.4884 13.7661V12.9651L42.9884 12.9651ZM42.9884 10.4373L43.4884 10.4373V10.124L43.2065 9.98733L42.9884 10.4373ZM23.5204 1L23.7385 0.550077L23.3556 0.364441L23.1111 0.712801L23.5204 1ZM22.6175 3.88171L22.8318 4.33349L23.139 4.18782L23.1164 3.84858L22.6175 3.88171ZM22.5576 2.9794L22.7772 2.53018L22.0015 2.15107L22.0587 3.01253L22.5576 2.9794ZM3.5608 12.9184L3.34657 12.4666L3.0608 12.6021V12.9184H3.5608ZM3.5608 86.8555H3.0608V87.1716L3.34639 87.3072L3.5608 86.8555ZM20.9698 95.1192L20.7554 95.5709L20.9693 95.6724L21.1834 95.5713L20.9698 95.1192ZM20.9703 95.119L21.1839 95.5711L21.4703 95.4358V95.119H20.9703ZM20.9703 20.97H21.4703V20.8129L21.3805 20.6841L20.9703 20.97ZM20.9702 20.9699L20.788 20.5042L20.1973 20.7354L20.56 21.2558L20.9702 20.9699ZM20.9703 20.9698L21.1525 21.4355L21.1696 21.4288L21.1861 21.4209L20.9703 20.9698ZM40.3746 11.6876L40.5904 12.1386L41.5231 11.6924L40.5941 11.2383L40.3746 11.6876ZM60.3557 76.5887L60.5686 77.0411L60.8557 76.906V76.5887H60.3557ZM23.5306 93.9144H23.0306V94.7022L23.7434 94.3669L23.5306 93.9144ZM60.3557 42.2101H60.8557V41.4173L60.1403 41.7589L60.3557 42.2101ZM40.4281 51.725H39.9281V52.5178L40.6435 52.1762L40.4281 51.725ZM40.4281 51.7249H40.9281V50.8898L40.192 51.2842L40.4281 51.7249ZM40.4279 51.725H39.9279V52.5601L40.664 52.1658L40.4279 51.725ZM40.4279 14.1786H40.9279V13.3883L40.2137 13.7268L40.4279 14.1786ZM23.5306 22.1874L23.3164 21.7356L23.0306 21.8711V22.1874H23.5306ZM42.9881 31.166L43.2027 30.7144L42.4881 30.3748V31.166H42.9881ZM42.9881 47.9748H42.4881V48.7677L43.2036 48.4261L42.9881 47.9748ZM60.6038 39.5375L60.8168 39.9898L61.773 39.5395L60.8184 39.0859L60.6038 39.5375ZM60.3557 39.6543L60.1427 39.202L59.8557 39.3371V39.6543H60.3557ZM60.3557 39.6824L60.5712 40.1336L60.8557 39.9977V39.6824H60.3557ZM23.0197 2.39145L22.941 1.20772L21.9432 1.27399L22.0219 2.45771L23.0197 2.39145ZM22.2229 0.791478L0.781343 11.2518L1.2198 12.1505L22.6614 1.69023L22.2229 0.791478ZM0.591283 11.9883L0.591321 11.9884L1.4099 11.414L1.40986 11.4139L0.591283 11.9883ZM1.00061 11.2012H1.00057V12.2012H1.00061V11.2012ZM0.500566 11.7012V85.6402H1.50057V11.7012H0.500566ZM1.21384 85.1879L1.21327 85.1877L0.786726 86.0921L0.787292 86.0924L1.21384 85.1879ZM0.5 85.6399L0.500029 87.9571L1.50003 87.9571L1.5 85.6399L0.5 85.6399ZM0.781753 88.4069L20.7515 98.0969L21.1881 97.1972L1.2183 87.5072L0.781753 88.4069ZM21.1831 98.0993L63.1709 78.298L62.7444 77.3935L20.7565 97.1948L21.1831 98.0993ZM63.4577 77.8476L63.4666 75.3621L62.4666 75.3585L62.4577 77.844L63.4577 77.8476ZM62.7539 74.9078L62.7476 74.9108L63.173 75.8158L63.1793 75.8128L62.7539 74.9078ZM63.4603 75.3638L63.4975 40.6756L62.4975 40.6745L62.4603 75.3628L63.4603 75.3638ZM62.7832 41.1268L62.7857 41.128L63.2145 40.2245L63.2119 40.2233L62.7832 41.1268ZM63.5001 40.6763L63.5001 38.4272H62.5001L62.5001 40.6763H63.5001ZM63.5001 38.4333L63.5001 38.4258L62.5002 38.4136L62.5001 38.4211L63.5001 38.4333ZM62.7919 37.9652L62.7918 37.9652L63.2084 38.8743L63.2085 38.8742L62.7919 37.9652ZM63.5001 38.4198V37.8422H62.5001V38.4198H63.5001ZM63.2139 37.3903L43.202 27.9223L42.7743 28.8262L62.7863 38.2942L63.2139 37.3903ZM43.4881 28.3742V12.9652H42.4881V28.3742H43.4881ZM43.2032 13.4165L43.2034 13.4165L42.7731 12.5137L42.773 12.5138L43.2032 13.4165ZM43.4882 12.9651V12.965H42.4882V12.9651H43.4882ZM42.7686 13.4142L42.7688 13.4143L43.208 12.5159L43.2079 12.5158L42.7686 13.4142ZM43.4884 12.9651L43.4884 10.4373L42.4884 10.4373L42.4884 12.9651L43.4884 12.9651ZM43.2065 9.98733L23.7385 0.550077L23.3023 1.44992L42.7703 10.8872L43.2065 9.98733ZM23.1111 0.712801L22.1115 2.13738L22.93 2.71178L23.9297 1.2872L23.1111 0.712801ZM23.1164 3.84858L23.0565 2.94626L22.0587 3.01253L22.1186 3.91485L23.1164 3.84858ZM3.77503 13.3702L22.8318 4.33349L22.4033 3.42993L3.34657 12.4666L3.77503 13.3702ZM4.0608 86.8555V12.9184H3.0608V86.8555H4.0608ZM21.1842 94.6675L3.77521 86.4038L3.34639 87.3072L20.7554 95.5709L21.1842 94.6675ZM20.7567 94.6669L20.7563 94.6671L21.1834 95.5713L21.1839 95.5711L20.7567 94.6669ZM20.4703 20.97V95.119H21.4703V20.97H20.4703ZM20.56 21.2558L20.5601 21.2559L21.3805 20.6841L21.3804 20.684L20.56 21.2558ZM20.7881 20.5042L20.788 20.5042L21.1524 21.4355L21.1525 21.4355L20.7881 20.5042ZM40.1588 11.2365L20.7546 20.5188L21.1861 21.4209L40.5904 12.1386L40.1588 11.2365ZM22.3381 3.42861L40.155 12.1368L40.5941 11.2383L22.7772 2.53018L22.3381 3.42861ZM60.1429 76.1363L23.3177 93.462L23.7434 94.3669L60.5686 77.0411L60.1429 76.1363ZM59.8557 42.2101V76.5887H60.8557V42.2101H59.8557ZM40.6435 52.1762L60.5712 42.6613L60.1403 41.7589L40.2127 51.2738L40.6435 52.1762ZM39.9281 51.7249V51.725H40.9281V51.7249H39.9281ZM40.664 52.1658L40.6642 52.1657L40.192 51.2842L40.1918 51.2843L40.664 52.1658ZM39.9279 14.1786V51.725H40.9279V14.1786H39.9279ZM23.7447 22.6392L40.642 14.6304L40.2137 13.7268L23.3164 21.7356L23.7447 22.6392ZM24.0306 93.9144V22.1874H23.0306V93.9144H24.0306ZM42.4881 31.166V47.9748H43.4881V31.166H42.4881ZM60.8184 39.0859L43.2027 30.7144L42.7735 31.6176L60.3892 39.9891L60.8184 39.0859ZM60.5688 40.1067L60.8168 39.9898L60.3908 39.0851L60.1427 39.202L60.5688 40.1067ZM60.8557 39.6824V39.6543H59.8557V39.6824H60.8557ZM43.2036 48.4261L60.5712 40.1336L60.1403 39.2311L42.7727 47.5236L43.2036 48.4261Z" fill="#0642FF"/>
</svg>
