<svg width="81" height="103" viewBox="0 0 81 103" fill="none" xmlns="http://www.w3.org/2000/svg">
<rect opacity="0.5" width="25.75" height="38.625" transform="matrix(0.866025 -0.5 -2.20305e-08 -1 35.6846 70.5669)" fill="#FB7400"/>
<path opacity="0.5" d="M57.8941 57.692L80.1942 70.567L80.1942 31.942L57.8941 19.067L57.8941 57.692Z" fill="#FB7400"/>
<rect opacity="0.5" width="25.75" height="25.75" transform="matrix(0.866025 0.5 -0.866025 0.5 57.9849 57.692)" fill="#E04732"/>
<g opacity="0.5">
<rect width="25.75" height="38.625" transform="matrix(0.866025 0.5 -2.20305e-08 1 35.6846 31.9419)" fill="#FB7400"/>
<path d="M57.8941 44.8169L80.1942 31.9419L80.1942 70.5669L57.8941 83.4419L57.8941 44.8169Z" fill="#FB7400"/>
</g>
<rect opacity="0.5" width="25.75" height="38.625" transform="matrix(0.866025 -0.5 -2.20305e-08 -1 35.6846 70.5669)" fill="#FB7400"/>
<path opacity="0.5" d="M57.8941 57.692L80.1942 70.567L80.1942 31.942L57.8941 19.067L57.8941 57.692Z" fill="#FB7400"/>
<rect opacity="0.5" width="25.75" height="25.75" transform="matrix(0.866025 0.5 -0.866025 0.5 57.9849 57.692)" fill="#E04732"/>
<g opacity="0.5">
<rect width="25.75" height="38.625" transform="matrix(0.866025 0.5 -2.20305e-08 1 35.6846 31.9419)" fill="#FB7400"/>
<path d="M57.8941 44.8169L80.1942 31.9419L80.1942 70.5669L57.8941 83.4419L57.8941 44.8169Z" fill="#FB7400"/>
</g>
<g opacity="0.3">
<rect width="25.75" height="77.25" transform="matrix(0.866025 0.5 -2.20305e-08 1 22.2925 0)" fill="#0642FF"/>
<rect width="25.75" height="77.25" transform="matrix(0.866025 -0.5 2.20305e-08 1 0 12.875)" fill="#0642FF"/>
</g>
<g opacity="0.3">
<rect width="25.75" height="77.25" transform="matrix(0.866025 -0.5 2.20305e-08 1 22.2993 25.75)" fill="#9F28FF"/>
<rect width="25.75" height="77.25" transform="matrix(0.866025 0.5 -2.20305e-08 1 0 12.875)" fill="#0642FF"/>
</g>
<g opacity="0.3">
<rect width="25.75" height="77.25" transform="matrix(0.866025 0.5 -2.20305e-08 1 22.2925 0)" fill="#0642FF"/>
<rect width="25.75" height="77.25" transform="matrix(0.866025 -0.5 2.20305e-08 1 0 12.875)" fill="#0642FF"/>
</g>
<g opacity="0.3">
<rect width="25.75" height="77.25" transform="matrix(0.866025 -0.5 2.20305e-08 1 22.2993 25.75)" fill="#9F28FF"/>
<rect width="25.75" height="77.25" transform="matrix(0.866025 0.5 -2.20305e-08 1 0 12.875)" fill="#0642FF"/>
</g>
</svg>
