<svg width="16" height="15" viewBox="0 0 16 15" fill="none" xmlns="http://www.w3.org/2000/svg">
<path fill-rule="evenodd" clip-rule="evenodd" d="M11.3114 1.17104e-05C10.2586 0 9.57992 0.125428 8.80193 0.506235C8.51389 0.647222 8.24367 0.817012 7.99271 1.0151C7.75141 0.828117 7.49198 0.666122 7.21586 0.529552C6.42278 0.137291 5.70929 0 4.69421 0C1.97559 0 0 2.25256 0 5.17809C0 7.38746 1.23188 9.52166 3.52643 11.5854C4.73083 12.6686 6.2686 13.7406 7.36989 14.3109L8 14.6372L8.63011 14.3109C9.7314 13.7406 11.2692 12.6686 12.4736 11.5854C14.7681 9.52166 16 7.38746 16 5.17809C16 2.28352 14.0058 0.0111697 11.3114 1.17104e-05ZM14.5456 5.17808C14.5456 6.90901 13.5173 8.6904 11.501 10.5039C10.4017 11.4926 8.98843 12.4807 8.0001 12.999C7.01176 12.4807 5.59851 11.4926 4.49921 10.5039C2.48288 8.6904 1.45464 6.90901 1.45464 5.17808C1.45464 3.01651 2.82456 1.45454 4.69431 1.45454C5.50139 1.45454 5.99874 1.55024 6.57111 1.83333C6.90919 2.00055 7.20801 2.22135 7.46667 2.49728L8.0018 3.06814L8.53206 2.49275C8.79654 2.20577 9.09974 1.97994 9.4415 1.81266C9.9971 1.54071 10.4634 1.45454 11.3085 1.45454C13.1552 1.46219 14.5456 3.04651 14.5456 5.17808Z" fill="#F45C00"/>
</svg>
