<?xml version="1.0" encoding="utf-8"?>
<!-- Generator: Adobe Illustrator 26.1.0, SVG Export Plug-In . SVG Version: 6.00 Build 0)  -->
<svg version="1.1" id="Layer_1" xmlns="http://www.w3.org/2000/svg" xmlns:xlink="http://www.w3.org/1999/xlink" x="0px" y="0px"
	 viewBox="0 0 235.3 85" style="enable-background:new 0 0 235.3 85;" xml:space="preserve">
<style type="text/css">
	.st0{fill:url(#SVGID_1_);}
	.st1{fill:url(#SVGID_00000183935931367415143900000004564497175488098234_);}
	.st2{fill:url(#SVGID_00000156576249852491438580000010042279558417525125_);}
	.st3{fill:url(#SVGID_00000029760965089848936000000001619198041996083362_);}
</style>
<linearGradient id="SVGID_1_" gradientUnits="userSpaceOnUse" x1="-460.3611" y1="442.3981" x2="-461.9236" y2="443.8598" gradientTransform="matrix(19.5788 0 0 -19.5788 9048.2832 8695.6709)">
	<stop  offset="0" style="stop-color:#1162FE"/>
	<stop  offset="1" style="stop-color:#3C7EFF"/>
</linearGradient>
<path class="st0" d="M0,17.8C0,8,8,0,17.8,0h23.7l-0.6,24.1c-0.2,9.6-8.1,17.3-17.8,17.3H0V17.8z"/>
<linearGradient id="SVGID_00000044877111563093877350000001603116354964572605_" gradientUnits="userSpaceOnUse" x1="-460.3611" y1="441.5398" x2="-461.9236" y2="440.0781" gradientTransform="matrix(19.5788 0 0 -19.5788 9048.2832 8695.6709)">
	<stop  offset="0" style="stop-color:#3C7C3F"/>
	<stop  offset="1" style="stop-color:#5E9C3C"/>
</linearGradient>
<path style="fill:url(#SVGID_00000044877111563093877350000001603116354964572605_);" d="M0,67.1c0,9.8,8,17.8,17.8,17.8h23.7
	l-0.6-24.1c-0.2-9.6-8.1-17.3-17.8-17.3H0V67.1z"/>
<linearGradient id="SVGID_00000180335386619879722620000018187479071578611094_" gradientUnits="userSpaceOnUse" x1="-459.5966" y1="441.5398" x2="-458.034" y2="440.0781" gradientTransform="matrix(19.5788 0 0 -19.5788 9048.2832 8695.6709)">
	<stop  offset="0" style="stop-color:#EA811C"/>
	<stop  offset="1" style="stop-color:#EB861B"/>
</linearGradient>
<path style="fill:url(#SVGID_00000180335386619879722620000018187479071578611094_);" d="M84.9,67.1c0,9.8-8,17.8-17.8,17.8H43.4
	L44,60.8c0.2-9.6,8.1-17.3,17.8-17.3h23.1V67.1z"/>
<linearGradient id="SVGID_00000038411714320608009520000000715496697960969113_" gradientUnits="userSpaceOnUse" x1="-458.1433" y1="443.7576" x2="-459.7058" y2="442.2959" gradientTransform="matrix(19.5788 0 0 -19.5788 9048.2832 8695.6709)">
	<stop  offset="0" style="stop-color:#E11346"/>
	<stop  offset="1" style="stop-color:#CE1240"/>
</linearGradient>
<path style="fill:url(#SVGID_00000038411714320608009520000000715496697960969113_);" d="M43.4,23.7c0,9.8,8,17.8,17.8,17.8h23.7
	l-0.6-24.1C84.1,7.7,76.2,0,66.5,0H43.4V23.7z"/>
<g>
	<path d="M113.1,39.6l-5.7-17.5h2.4l2.7,8.6c0.8,2.4,1.4,4.5,1.9,6.6h0.1c0.5-2,1.2-4.2,2-6.5l3-8.7h2.4l-6.3,17.5H113.1z"/>
	<path d="M129.8,39.6l-0.2-1.6h-0.1c-0.7,1-2.1,1.9-3.8,1.9c-2.5,0-3.8-1.8-3.8-3.6c0-3,2.7-4.7,7.6-4.7v-0.3c0-1-0.3-2.9-2.9-2.9
		c-1.2,0-2.4,0.4-3.3,0.9l-0.5-1.5c1-0.7,2.5-1.1,4.1-1.1c3.8,0,4.8,2.6,4.8,5.1v4.7c0,1.1,0.1,2.2,0.2,3H129.8z M129.5,33.2
		c-2.5-0.1-5.3,0.4-5.3,2.8c0,1.5,1,2.2,2.2,2.2c1.6,0,2.7-1,3-2.1c0.1-0.2,0.1-0.5,0.1-0.7V33.2z"/>
	<path d="M135.4,21.2h2.3v18.5h-2.3V21.2z"/>
	<path d="M141.5,21.2h2.3v18.5h-2.3V21.2z"/>
	<path d="M148.9,33.7c0.1,3.1,2,4.4,4.3,4.4c1.6,0,2.6-0.3,3.5-0.7l0.4,1.6c-0.8,0.4-2.2,0.8-4.2,0.8c-3.9,0-6.2-2.5-6.2-6.3
		c0-3.8,2.2-6.8,5.9-6.8c4.1,0,5.2,3.6,5.2,5.9c0,0.5-0.1,0.8-0.1,1.1H148.9z M155.6,32.1c0-1.5-0.6-3.7-3.2-3.7
		c-2.3,0-3.3,2.1-3.5,3.7H155.6z"/>
	<path d="M163.4,23.4V27h3.3v1.7h-3.3v6.8c0,1.6,0.4,2.4,1.7,2.4c0.6,0,1-0.1,1.3-0.2l0.1,1.7c-0.4,0.2-1.1,0.3-2,0.3
		c-1.1,0-1.9-0.3-2.5-1c-0.7-0.7-0.9-1.8-0.9-3.3v-6.9h-2V27h2v-3L163.4,23.4z"/>
	<path d="M172,23.4V27h3.3v1.7H172v6.8c0,1.6,0.4,2.4,1.7,2.4c0.6,0,1-0.1,1.3-0.2l0.1,1.7c-0.4,0.2-1.1,0.3-2,0.3
		c-1.1,0-1.9-0.3-2.5-1c-0.7-0.7-0.9-1.8-0.9-3.3v-6.9h-2V27h2v-3L172,23.4z"/>
	<path d="M184.8,39.6l-0.2-1.6h-0.1c-0.7,1-2.1,1.9-3.8,1.9c-2.5,0-3.8-1.8-3.8-3.6c0-3,2.7-4.7,7.6-4.7v-0.3c0-1-0.3-2.9-2.9-2.9
		c-1.2,0-2.4,0.4-3.3,0.9l-0.5-1.5c1-0.7,2.5-1.1,4.1-1.1c3.8,0,4.8,2.6,4.8,5.1v4.7c0,1.1,0.1,2.2,0.2,3H184.8z M184.5,33.2
		c-2.5-0.1-5.3,0.4-5.3,2.8c0,1.5,1,2.2,2.2,2.2c1.6,0,2.7-1,3-2.1c0.1-0.2,0.1-0.5,0.1-0.7V33.2z"/>
	<path d="M108.4,70.8c0.1-0.9,0.1-2.1,0.1-3.2V52.4h2.3v7.9h0.1c0.8-1.4,2.3-2.3,4.3-2.3c3.1,0,5.3,2.6,5.3,6.4
		c0,4.5-2.8,6.7-5.6,6.7c-1.8,0-3.3-0.7-4.2-2.4h-0.1l-0.1,2.1H108.4z M110.7,65.8c0,0.3,0.1,0.6,0.1,0.8c0.4,1.6,1.8,2.7,3.4,2.7
		c2.4,0,3.8-2,3.8-4.8c0-2.5-1.3-4.7-3.7-4.7c-1.6,0-3,1.1-3.5,2.8c-0.1,0.3-0.1,0.6-0.1,0.9V65.8z"/>
	<path d="M124.5,64.9c0.1,3.1,2,4.4,4.3,4.4c1.6,0,2.6-0.3,3.5-0.7l0.4,1.6c-0.8,0.4-2.2,0.8-4.2,0.8c-3.9,0-6.2-2.5-6.2-6.3
		s2.2-6.8,5.9-6.8c4.1,0,5.2,3.6,5.2,5.9c0,0.5-0.1,0.8-0.1,1.1H124.5z M131.2,63.3c0-1.5-0.6-3.7-3.2-3.7c-2.3,0-3.3,2.1-3.5,3.7
		H131.2z"/>
	<path d="M136.3,61.6c0-1.3,0-2.4-0.1-3.4h2l0.1,2h0.1c0.7-1.2,1.9-2.3,4-2.3c1.7,0,3,1,3.6,2.5h0.1c0.4-0.7,0.9-1.2,1.4-1.6
		c0.8-0.6,1.6-0.9,2.8-0.9c1.7,0,4.1,1.1,4.1,5.5v7.4H152v-7.1c0-2.4-0.9-3.9-2.7-3.9c-1.3,0-2.3,1-2.7,2.1
		c-0.1,0.3-0.2,0.7-0.2,1.1v7.8h-2.2v-7.5c0-2-0.9-3.5-2.6-3.5c-1.4,0-2.5,1.1-2.8,2.3c-0.1,0.3-0.2,0.7-0.2,1.1v7.6h-2.2V61.6z"/>
	<path d="M158,53.3h2.3v15.6h7.5v1.9H158V53.3z"/>
	<path d="M172.8,54.7c0,0.8-0.5,1.4-1.5,1.4c-0.8,0-1.4-0.6-1.4-1.4c0-0.8,0.6-1.4,1.4-1.4C172.2,53.3,172.8,53.9,172.8,54.7z
		 M170.2,70.8V58.2h2.3v12.6H170.2z"/>
	<path d="M176.2,70.8c0.1-0.9,0.1-2.1,0.1-3.2V52.4h2.3v7.9h0.1c0.8-1.4,2.3-2.3,4.3-2.3c3.1,0,5.3,2.6,5.3,6.4
		c0,4.5-2.8,6.7-5.6,6.7c-1.8,0-3.3-0.7-4.2-2.4h-0.1l-0.1,2.1H176.2z M178.6,65.8c0,0.3,0.1,0.6,0.1,0.8c0.4,1.6,1.8,2.7,3.4,2.7
		c2.4,0,3.8-2,3.8-4.8c0-2.5-1.3-4.7-3.7-4.7c-1.6,0-3,1.1-3.5,2.8c-0.1,0.3-0.1,0.6-0.1,0.9V65.8z"/>
</g>
</svg>
